<svg width="800" height="1200" xmlns="http://www.w3.org/2000/svg">
      <!-- Taustaruudukko -->
      <rect width="100%" height="100%" fill="#f0f0f0" />

      <!-- Yrityksen nimi ja logo -->
      <rect x="20" y="20" width="760" height="60" fill="#d9d9d9" stroke="#000" />
      <text x="400" y="55" font-size="20" text-anchor="middle">Yrityksen nimi ja logo</text>

      <!-- Päävalikko -->
      <rect x="20" y="90" width="760" height="40" fill="#cccccc" stroke="#000" />
      <text x="400" y="115" font-size="16" text-anchor="middle">Päävalikko</text>

      <!-- Palveluiden esittely -->
      <rect x="20" y="150" width="760" height="40" fill="#e0e0e0" stroke="#000" />
      <text x="400" y="175" font-size="18" text-anchor="middle">Meidän Palvelut</text>

      <!-- Palvelu 1: Huolto -->
      <rect x="20" y="210" width="760" height="80" fill="#ffffff" stroke="#000" />
      <text x="400" y="250" font-size="16" text-anchor="middle">Huoltopalvelut</text>
      <text x="400" y="270" font-size="14" text-anchor="middle">Kuvaus huoltopalveluista</text>

      <!-- Kortti 1: Huoltopalvelu A -->
      <rect x="40" y="300" width="220" height="200" fill="#e0e0e0" stroke="#000" />
      <rect x="40" y="300" width="220" height="80" fill="#d9d9d9" stroke="#000" />
      <text x="150" y="340" font-size="12" text-anchor="middle" alignment-baseline="middle">
            Thumbnail</text>
      <text x="150" y="405" font-size="12" text-anchor="middle" alignment-baseline="middle">Lyhyt
            kuvaus A:sta</text>

      <!-- Kortti 2: Huoltopalvelu B -->
      <rect x="290" y="300" width="220" height="200" fill="#e0e0e0" stroke="#000" />
      <rect x="290" y="300" width="220" height="80" fill="#d9d9d9" stroke="#000" />
      <text x="400" y="340" font-size="12" text-anchor="middle" alignment-baseline="middle">
            Thumbnail</text>
      <text x="400" y="405" font-size="12" text-anchor="middle" alignment-baseline="middle">Lyhyt
            kuvaus B:stä</text>

      <!-- Kortti 3: Huoltopalvelu C -->
      <rect x="540" y="300" width="220" height="200" fill="#e0e0e0" stroke="#000" />
      <rect x="540" y="300" width="220" height="80" fill="#d9d9d9" stroke="#000" />
      <text x="650" y="340" font-size="12" text-anchor="middle" alignment-baseline="middle">
            Thumbnail</text>
      <text x="650" y="405" font-size="12" text-anchor="middle" alignment-baseline="middle">Lyhyt
            kuvaus C:stä</text>

      <!-- Palvelu 2: Myynti -->
      <rect x="20" y="430" width="760" height="80" fill="#ffffff" stroke="#000" />
      <text x="400" y="470" font-size="16" text-anchor="middle">Myyntipalvelut</text>
      <text x="400" y="490" font-size="14" text-anchor="middle">Kuvaus myyntipalveluista</text>

      <!-- Kortti 1: Myyntipalvelu A -->
      <rect x="40" y="530" width="220" height="200" fill="#e0e0e0" stroke="#000" />
      <rect x="40" y="530" width="220" height="80" fill="#d9d9d9" stroke="#000" />
      <text x="150" y="560" font-size="12" text-anchor="middle" alignment-baseline="middle">
            Thumbnail</text>
      <text x="150" y="625" font-size="12" text-anchor="middle" alignment-baseline="middle">Lyhyt
            kuvaus A:sta</text>

      <!-- Kortti 2: Myyntipalvelu B -->
      <rect x="290" y="530" width="220" height="200" fill="#e0e0e0" stroke="#000" />
      <rect x="290" y="530" width="220" height="80" fill="#d9d9d9" stroke="#000" />
      <text x="400" y="560" font-size="12" text-anchor="middle" alignment-baseline="middle">
            Thumbnail</text>
      <text x="400" y="625" font-size="12" text-anchor="middle" alignment-baseline="middle">Lyhyt
            kuvaus B:stä</text>

      <!-- Kortti 3: Myyntipalvelu C -->
      <rect x="540" y="530" width="220" height="200" fill="#e0e0e0" stroke="#000" />
      <rect x="540" y="530" width="220" height="80" fill="#d9d9d9" stroke="#000" />
      <text x="650" y="560" font-size="12" text-anchor="middle" alignment-baseline="middle">
            Thumbnail</text>
      <text x="650" y="625" font-size="12" text-anchor="middle" alignment-baseline="middle">Lyhyt
            kuvaus C:stä</text>

      <!-- Palvelu 3: Entisöinti -->
      <rect x="20" y="740" width="760" height="80" fill="#ffffff" stroke="#000" />
      <text x="400" y="780" font-size="16" text-anchor="middle">Entisöintipalvelut</text>
      <text x="400" y="800" font-size="14" text-anchor="middle">Kuvaus entisöintipalveluista</text>

      <!-- Kortti 1: Entisöintipalvelu A -->
      <rect x="40" y="860" width="220" height="200" fill="#e0e0e0" stroke="#000" />
      <rect x="40" y="860" width="220" height="80" fill="#d9d9d9" stroke="#000" />
      <text x="150" y="890" font-size="12" text-anchor="middle" alignment-baseline="middle">
            Thumbnail</text>
      <text x="150" y="955" font-size="12" text-anchor="middle" alignment-baseline="middle">Lyhyt
            kuvaus A:sta</text>

      <!-- Kortti 2: Entisöintipalvelu B -->
      <rect x="290" y="860" width="220" height="200" fill="#e0e0e0" stroke="#000" />
      <rect x="290" y="860" width="220" height="80" fill="#d9d9d9" stroke="#000" />
      <text x="400" y="890" font-size="12" text-anchor="middle" alignment-baseline="middle">
            Thumbnail</text>
      <text x="400" y="955" font-size="12" text-anchor="middle" alignment-baseline="middle">Lyhyt
            kuvaus B:stä</text>

      <!-- Kortti 3: Entisöintipalvelu C -->
      <rect x="540" y="860" width="220" height="200" fill="#e0e0e0" stroke="#000" />
      <rect x="540" y="860" width="220" height="80" fill="#d9d9d9" stroke="#000" />
      <text x="650" y="890" font-size="12" text-anchor="middle" alignment-baseline="middle">
            Thumbnail</text>
      <text x="650" y="955" font-size="12" text-anchor="middle" alignment-baseline="middle">Lyhyt
            kuvaus C:stä</text>

      <!-- Footer -->
      <rect x="20" y="1060" width="760" height="40" fill="#cccccc" stroke="#000" />
      <text x="400" y="1085" font-size="14" text-anchor="middle">Yhteystiedot / Footer</text>
</svg>